# xmcd
#
# Track frame offsets: 
#        150
#        20618
#        42042
#        63939
#        82075
#        98885
#        115548
#        135342
#        149670
#        165580
#        184943
#        203130
#        218351
#        235918
#        258150
#        276307
#        300212
#        318010
#        336865
#
# Disc length: 4771 seconds
#
# Revision: 1
# Processed by: cddbd v1.5.2PL0 Copyright (c) Steve Scherf et al.
# Submitted via: ExactAudioCopyFreeDBPlugin 1.0
#
DISCID=fe12a113
DTITLE=Damion Davis - Am Ende des Tunnels
DYEAR=2007
DGENRE=Hip Hop
TTITLE0=Schön Dich zu sehen
TTITLE1=Lebenslicht
TTITLE2=Ruck Zuck
TTITLE3=Wie hoch? feat. F.R.
TTITLE4=Moderne Kriegsführung
TTITLE5=Grossstadttraum
TTITLE6=Nonsens feat. Vmann and Morlockk Dilemma
TTITLE7=Medley (Oldschool) feat. Dj D-Tale
TTITLE8=Dmn
TTITLE9=Von jetzt an
TTITLE10=Rooftops
TTITLE11=Frühling feat. Marcello
TTITLE12=Siedepunkt Pt. 2
TTITLE13=Nothing but Love feat. Pebe
TTITLE14=Soulfood
TTITLE15=Rolling Stone feat. Mr. Mick and Sir Serch
TTITLE16=Heut Nacht
TTITLE17=Wort zum Sonntag
TTITLE18=Linewand
EXTD=
EXTT0=
EXTT1=
EXTT2=
EXTT3=
EXTT4=
EXTT5=
EXTT6=
EXTT7=
EXTT8=
EXTT9=
EXTT10=
EXTT11=
EXTT12=
EXTT13=
EXTT14=
EXTT15=
EXTT16=
EXTT17=
EXTT18=
PLAYORDER=
